M48
; DRILL file {KiCad 8.0.0} date 2024-03-11T16:31:31-0600
; FORMAT={-:-/ absolute / inch / decimal}
; #@! TF.CreationDate,2024-03-11T16:31:31-06:00
; #@! TF.GenerationSoftware,Kicad,Pcbnew,8.0.0
; #@! TF.FileFunction,Plated,1,2,PTH
FMAT,2
INCH
; #@! TA.AperFunction,Plated,PTH,ViaDrill
T1C0.0157
; #@! TA.AperFunction,Plated,PTH,ComponentDrill
T2C0.0394
%
G90
G05
T1
X4.4665Y-2.4528
T2
X4.0945Y-2.3039
X4.0945Y-2.4039
X4.0945Y-2.5039
X4.0945Y-2.6039
X4.0945Y-2.7039
X4.1945Y-2.3039
X4.1945Y-2.4039
X4.1945Y-2.5039
X4.1945Y-2.6039
X4.1945Y-2.7039
X4.5531Y-2.3039
X4.5531Y-2.4039
X4.5531Y-2.5039
X4.5531Y-2.6039
X4.5531Y-2.7039
X4.6531Y-2.3039
X4.6531Y-2.4039
X4.6531Y-2.5039
X4.6531Y-2.6039
X4.6531Y-2.7039
X4.9971Y-2.4041
X4.9971Y-2.5041
X4.9971Y-2.6041
X5.0971Y-2.4041
X5.0971Y-2.5041
X5.0971Y-2.6041
M30
