%TF.GenerationSoftware,KiCad,Pcbnew,8.0.0*%
%TF.CreationDate,2024-03-11T16:31:31-06:00*%
%TF.ProjectId,swd_adapter,7377645f-6164-4617-9074-65722e6b6963,rev?*%
%TF.SameCoordinates,Original*%
%TF.FileFunction,Copper,L1,Top*%
%TF.FilePolarity,Positive*%
%FSLAX46Y46*%
G04 Gerber Fmt 4.6, Leading zero omitted, Abs format (unit mm)*
G04 Created by KiCad (PCBNEW 8.0.0) date 2024-03-11 16:31:31*
%MOMM*%
%LPD*%
G01*
G04 APERTURE LIST*
G04 Aperture macros list*
%AMRoundRect*
0 Rectangle with rounded corners*
0 $1 Rounding radius*
0 $2 $3 $4 $5 $6 $7 $8 $9 X,Y pos of 4 corners*
0 Add a 4 corners polygon primitive as box body*
4,1,4,$2,$3,$4,$5,$6,$7,$8,$9,$2,$3,0*
0 Add four circle primitives for the rounded corners*
1,1,$1+$1,$2,$3*
1,1,$1+$1,$4,$5*
1,1,$1+$1,$6,$7*
1,1,$1+$1,$8,$9*
0 Add four rect primitives between the rounded corners*
20,1,$1+$1,$2,$3,$4,$5,0*
20,1,$1+$1,$4,$5,$6,$7,0*
20,1,$1+$1,$6,$7,$8,$9,0*
20,1,$1+$1,$8,$9,$2,$3,0*%
G04 Aperture macros list end*
%TA.AperFunction,ComponentPad*%
%ADD10RoundRect,0.250000X-0.600000X-0.600000X0.600000X-0.600000X0.600000X0.600000X-0.600000X0.600000X0*%
%TD*%
%TA.AperFunction,ComponentPad*%
%ADD11C,1.700000*%
%TD*%
%TA.AperFunction,ComponentPad*%
%ADD12RoundRect,0.250000X0.600000X0.600000X-0.600000X0.600000X-0.600000X-0.600000X0.600000X-0.600000X0*%
%TD*%
%TA.AperFunction,ViaPad*%
%ADD13C,0.800000*%
%TD*%
%TA.AperFunction,Conductor*%
%ADD14C,0.250000*%
%TD*%
G04 APERTURE END LIST*
D10*
%TO.P,J1,1,VTref*%
%TO.N,/Vcc*%
X115650000Y-58520000D03*
D11*
%TO.P,J1,2,SWDIO/TMS*%
%TO.N,/SWDIO*%
X118190000Y-58520000D03*
%TO.P,J1,3,GND*%
%TO.N,GND*%
X115650000Y-61060000D03*
%TO.P,J1,4,SWCLK/TCK*%
%TO.N,/SWCLK*%
X118190000Y-61060000D03*
%TO.P,J1,5,GND*%
%TO.N,GND*%
X115650000Y-63600000D03*
%TO.P,J1,6,SWO/TDO*%
%TO.N,/SWO*%
X118190000Y-63600000D03*
%TO.P,J1,7,KEY*%
%TO.N,unconnected-(J1-KEY-Pad7)*%
X115650000Y-66140000D03*
%TO.P,J1,8,NC/TDI*%
%TO.N,/RST*%
X118190000Y-66140000D03*
%TO.P,J1,9,GNDDetect*%
%TO.N,GND*%
X115650000Y-68680000D03*
%TO.P,J1,10,~{RESET}*%
%TO.N,/RST*%
X118190000Y-68680000D03*
%TD*%
D10*
%TO.P,J3,1,Pin_1*%
%TO.N,/RST*%
X104000000Y-58520000D03*
D11*
%TO.P,J3,2,Pin_2*%
%TO.N,/SWCLK*%
X106540000Y-58520000D03*
%TO.P,J3,3,Pin_3*%
%TO.N,/SWO*%
X104000000Y-61060000D03*
%TO.P,J3,4,Pin_4*%
%TO.N,/SWDIO*%
X106540000Y-61060000D03*
%TO.P,J3,5,Pin_5*%
%TO.N,GND*%
X104000000Y-63600000D03*
%TO.P,J3,6,Pin_6*%
X106540000Y-63600000D03*
%TO.P,J3,7,Pin_7*%
%TO.N,/Vcc*%
X104000000Y-66140000D03*
%TO.P,J3,8,Pin_8*%
X106540000Y-66140000D03*
%TO.P,J3,9,Pin_9*%
%TO.N,unconnected-(J3-Pin_9-Pad9)*%
X104000000Y-68680000D03*
%TO.P,J3,10,Pin_10*%
%TO.N,unconnected-(J3-Pin_10-Pad10)*%
X106540000Y-68680000D03*
%TD*%
D12*
%TO.P,J2,1,VCC*%
%TO.N,/Vcc*%
X129467500Y-66145000D03*
D11*
%TO.P,J2,2,SWDIO*%
%TO.N,/SWDIO*%
X126927500Y-66145000D03*
%TO.P,J2,3,~{RESET}*%
%TO.N,/RST*%
X129467500Y-63605000D03*
%TO.P,J2,4,SWCLK*%
%TO.N,/SWCLK*%
X126927500Y-63605000D03*
%TO.P,J2,5,GND*%
%TO.N,GND*%
X129467500Y-61065000D03*
%TO.P,J2,6,SWO*%
%TO.N,/SWO*%
X126927500Y-61065000D03*
%TD*%
D13*
%TO.N,/SWDIO*%
X113450000Y-62300000D03*
%TD*%
D14*
%TO.N,/Vcc*%
X120845000Y-57345000D02*
X125850000Y-62350000D01*
X115650000Y-58520000D02*
X116825000Y-57345000D01*
X128200000Y-63100000D02*
X128200000Y-64877500D01*
X108030000Y-66140000D02*
X115650000Y-58520000D01*
X128200000Y-64877500D02*
X129467500Y-66145000D01*
X116825000Y-57345000D02*
X120845000Y-57345000D01*
X127450000Y-62350000D02*
X128200000Y-63100000D01*
X125850000Y-62350000D02*
X127450000Y-62350000D01*
X106540000Y-66140000D02*
X108030000Y-66140000D01*
X106540000Y-66140000D02*
X104000000Y-66140000D01*
%TO.N,/SWDIO*%
X113450000Y-62300000D02*
X116900000Y-62300000D01*
X126927500Y-66145000D02*
X125632500Y-64850000D01*
X116900000Y-64200000D02*
X116900000Y-62300000D01*
X125632500Y-64850000D02*
X117550000Y-64850000D01*
X116900000Y-62300000D02*
X116900000Y-59810000D01*
X116900000Y-59810000D02*
X118190000Y-58520000D01*
X117550000Y-64850000D02*
X116900000Y-64200000D01*
%TO.N,GND*%
X104000000Y-63600000D02*
X106540000Y-63600000D01*
%TO.N,/SWCLK*%
X120735000Y-63605000D02*
X118190000Y-61060000D01*
X126927500Y-63605000D02*
X120735000Y-63605000D01*
%TD*%
%TA.AperFunction,Conductor*%
%TO.N,GND*%
G36*
X117004855Y-66806546D02*
G01*
X117021575Y-66825842D01*
X117151501Y-67011396D01*
X117151506Y-67011402D01*
X117318597Y-67178493D01*
X117318603Y-67178498D01*
X117504158Y-67308425D01*
X117547783Y-67363002D01*
X117554977Y-67432500D01*
X117523454Y-67494855D01*
X117504158Y-67511575D01*
X117318597Y-67641505D01*
X117151505Y-67808597D01*
X117021269Y-67994595D01*
X116966692Y-68038220D01*
X116897194Y-68045414D01*
X116834839Y-68013891D01*
X116818119Y-67994595D01*
X116764925Y-67918626D01*
X116764925Y-67918625D01*
X116132962Y-68550589D01*
X116115925Y-68487007D01*
X116050099Y-68372993D01*
X115957007Y-68279901D01*
X115842993Y-68214075D01*
X115779410Y-68197037D01*
X116411373Y-67565073D01*
X116411373Y-67565072D01*
X116335405Y-67511880D01*
X116291780Y-67457304D01*
X116284586Y-67387805D01*
X116316108Y-67325451D01*
X116335399Y-67308734D01*
X116521401Y-67178495D01*
X116688495Y-67011401D01*
X116818425Y-66825842D01*
X116873002Y-66782217D01*
X116942500Y-66775023D01*
X117004855Y-66806546D01*
G37*
%TD.AperFunction*%
%TA.AperFunction,Conductor*%
G36*
X106074075Y-63792993D02*
G01*
X106139901Y-63907007D01*
X106232993Y-64000099D01*
X106347007Y-64065925D01*
X106410590Y-64082962D01*
X105778625Y-64714925D01*
X105854594Y-64768119D01*
X105898219Y-64822696D01*
X105905413Y-64892194D01*
X105873890Y-64954549D01*
X105854595Y-64971269D01*
X105668594Y-65101508D01*
X105501505Y-65268597D01*
X105371575Y-65454158D01*
X105316998Y-65497783D01*
X105247500Y-65504977D01*
X105185145Y-65473454D01*
X105168425Y-65454158D01*
X105038494Y-65268597D01*
X104871402Y-65101506D01*
X104871401Y-65101505D01*
X104685405Y-64971269D01*
X104641781Y-64916692D01*
X104634588Y-64847193D01*
X104666110Y-64784839D01*
X104685405Y-64768119D01*
X104761373Y-64714925D01*
X104129409Y-64082962D01*
X104192993Y-64065925D01*
X104307007Y-64000099D01*
X104400099Y-63907007D01*
X104465925Y-63792993D01*
X104482962Y-63729410D01*
X105114925Y-64361373D01*
X105168425Y-64284968D01*
X105223002Y-64241344D01*
X105292501Y-64234151D01*
X105354855Y-64265673D01*
X105371576Y-64284969D01*
X105425073Y-64361372D01*
X106057037Y-63729409D01*
X106074075Y-63792993D01*
G37*
%TD.AperFunction*%
%TA.AperFunction,Conductor*%
G36*
X105354855Y-61726546D02*
G01*
X105371575Y-61745842D01*
X105501500Y-61931395D01*
X105501505Y-61931401D01*
X105668599Y-62098495D01*
X105854594Y-62228730D01*
X105898218Y-62283307D01*
X105905411Y-62352806D01*
X105873889Y-62415160D01*
X105854593Y-62431880D01*
X105778626Y-62485072D01*
X105778625Y-62485072D01*
X106410590Y-63117037D01*
X106347007Y-63134075D01*
X106232993Y-63199901D01*
X106139901Y-63292993D01*
X106074075Y-63407007D01*
X106057037Y-63470590D01*
X105425072Y-62838625D01*
X105425072Y-62838626D01*
X105371574Y-62915030D01*
X105316998Y-62958655D01*
X105247499Y-62965849D01*
X105185144Y-62934326D01*
X105168424Y-62915030D01*
X105114925Y-62838626D01*
X105114925Y-62838625D01*
X104482962Y-63470589D01*
X104465925Y-63407007D01*
X104400099Y-63292993D01*
X104307007Y-63199901D01*
X104192993Y-63134075D01*
X104129410Y-63117037D01*
X104761373Y-62485073D01*
X104761373Y-62485072D01*
X104685405Y-62431880D01*
X104641780Y-62377304D01*
X104634586Y-62307805D01*
X104666108Y-62245451D01*
X104685399Y-62228734D01*
X104871401Y-62098495D01*
X105038495Y-61931401D01*
X105168425Y-61745842D01*
X105223002Y-61702217D01*
X105292500Y-61695023D01*
X105354855Y-61726546D01*
G37*
%TD.AperFunction*%
%TA.AperFunction,Conductor*%
G36*
X129001575Y-61257993D02*
G01*
X129067401Y-61372007D01*
X129160493Y-61465099D01*
X129274507Y-61530925D01*
X129338090Y-61547962D01*
X128706125Y-62179925D01*
X128782094Y-62233119D01*
X128825719Y-62287696D01*
X128832913Y-62357194D01*
X128801390Y-62419549D01*
X128782094Y-62436269D01*
X128654859Y-62525359D01*
X128588653Y-62547686D01*
X128520886Y-62530676D01*
X128496055Y-62511465D01*
X128021034Y-62036444D01*
X127987549Y-61975121D01*
X127992533Y-61905429D01*
X128007140Y-61877640D01*
X128013120Y-61869099D01*
X128096232Y-61750403D01*
X128150807Y-61706780D01*
X128220305Y-61699586D01*
X128282660Y-61731109D01*
X128299380Y-61750405D01*
X128352573Y-61826373D01*
X128984537Y-61194409D01*
X129001575Y-61257993D01*
G37*
%TD.AperFunction*%
%TA.AperFunction,Conductor*%
G36*
X131600860Y-49049596D02*
G01*
X131603666Y-49049635D01*
X131764001Y-49051872D01*
X131776268Y-49052653D01*
X132101306Y-49089668D01*
X132115131Y-49092042D01*
X132433029Y-49165398D01*
X132446511Y-49169325D01*
X132754072Y-49278180D01*
X132767013Y-49283604D01*
X133060281Y-49426558D01*
X133072540Y-49433420D01*
X133347736Y-49608630D01*
X133359132Y-49616828D01*
X133612756Y-49822068D01*
X133623144Y-49831497D01*
X133851906Y-50064104D01*
X133861176Y-50074665D01*
X134062140Y-50331649D01*
X134070156Y-50343192D01*
X134240756Y-50621270D01*
X134247413Y-50633645D01*
X134385456Y-50929242D01*
X134390672Y-50942292D01*
X134494378Y-51251604D01*
X134498083Y-51265159D01*
X134566129Y-51584226D01*
X134568276Y-51598114D01*
X134599865Y-51923678D01*
X134600445Y-51935989D01*
X134600000Y-52100168D01*
X134600000Y-75099117D01*
X134599988Y-75100855D01*
X134597725Y-75262256D01*
X134596957Y-75274402D01*
X134560722Y-75595992D01*
X134558393Y-75609700D01*
X134486573Y-75924366D01*
X134482724Y-75937729D01*
X134376120Y-76242386D01*
X134370798Y-76255233D01*
X134230760Y-76546025D01*
X134224034Y-76558195D01*
X134052314Y-76831486D01*
X134044267Y-76842827D01*
X133843028Y-77095173D01*
X133833762Y-77105541D01*
X133605541Y-77333762D01*
X133595173Y-77343028D01*
X133342827Y-77544267D01*
X133331486Y-77552314D01*
X133058195Y-77724034D01*
X133046025Y-77730760D01*
X132755233Y-77870798D01*
X132742386Y-77876120D01*
X132437729Y-77982724D01*
X132424366Y-77986573D01*
X132109700Y-78058393D01*
X132095992Y-78060722D01*
X131774402Y-78096957D01*
X131762256Y-78097725D01*
X131600856Y-78099988D01*
X131599118Y-78100000D01*
X101572620Y-78100000D01*
X101569997Y-78099972D01*
X101553158Y-78099615D01*
X101409811Y-78096582D01*
X101397740Y-78095736D01*
X101077828Y-78057554D01*
X101064196Y-78055149D01*
X100751379Y-77981747D01*
X100738104Y-77977839D01*
X100435415Y-77870026D01*
X100422665Y-77864665D01*
X100133883Y-77723788D01*
X100121800Y-77717034D01*
X99850521Y-77544848D01*
X99839266Y-77536789D01*
X99588875Y-77335443D01*
X99578588Y-77326180D01*
X99352193Y-77098174D01*
X99343003Y-77087822D01*
X99143422Y-76835988D01*
X99135468Y-76824711D01*
X98965191Y-76552188D01*
X98958532Y-76540073D01*
X98822071Y-76255233D01*
X98819705Y-76250293D01*
X98814438Y-76237515D01*
X98708769Y-75934053D01*
X98704956Y-75920752D01*
X98633772Y-75607413D01*
X98631469Y-75593794D01*
X98595558Y-75273622D01*
X98594798Y-75261516D01*
X98592577Y-75100868D01*
X98592565Y-75099154D01*
X98592565Y-68680000D01*
X102644341Y-68680000D01*
X102664936Y-68915403D01*
X102664938Y-68915413D01*
X102726094Y-69143655D01*
X102726096Y-69143659D01*
X102726097Y-69143663D01*
X102805801Y-69314588D01*
X102825965Y-69357830D01*
X102825967Y-69357834D01*
X102884462Y-69441373D01*
X102961505Y-69551401D01*
X103128599Y-69718495D01*
X103225384Y-69786265D01*
X103322165Y-69854032D01*
X103322167Y-69854033D01*
X103322170Y-69854035D01*
X103536337Y-69953903D01*
X103764592Y-70015063D01*
X103952918Y-70031539D01*
X103999999Y-70035659D01*
X104000000Y-70035659D01*
X104000001Y-70035659D01*
X104039234Y-70032226D01*
X104235408Y-70015063D01*
X104463663Y-69953903D01*
X104677830Y-69854035D01*
X104871401Y-69718495D01*
X105038495Y-69551401D01*
X105168425Y-69365842D01*
X105223002Y-69322217D01*
X105292500Y-69315023D01*
X105354855Y-69346546D01*
X105371575Y-69365842D01*
X105501500Y-69551395D01*
X105501505Y-69551401D01*
X105668599Y-69718495D01*
X105765384Y-69786265D01*
X105862165Y-69854032D01*
X105862167Y-69854033D01*
X105862170Y-69854035D01*
X106076337Y-69953903D01*
X106304592Y-70015063D01*
X106492918Y-70031539D01*
X106539999Y-70035659D01*
X106540000Y-70035659D01*
X106540001Y-70035659D01*
X106579234Y-70032226D01*
X106775408Y-70015063D01*
X107003663Y-69953903D01*
X107217830Y-69854035D01*
X107411401Y-69718495D01*
X107578495Y-69551401D01*
X107714035Y-69357830D01*
X107813903Y-69143663D01*
X107875063Y-68915408D01*
X107895659Y-68680000D01*
X107875063Y-68444592D01*
X107813903Y-68216337D01*
X107714035Y-68002171D01*
X107708731Y-67994595D01*
X107578494Y-67808597D01*
X107411402Y-67641506D01*
X107411396Y-67641501D01*
X107225842Y-67511575D01*
X107182217Y-67456998D01*
X107175023Y-67387500D01*
X107206546Y-67325145D01*
X107225842Y-67308425D01*
X107248026Y-67292891D01*
X107411401Y-67178495D01*
X107578495Y-67011401D01*
X107713652Y-66818377D01*
X107768229Y-66774752D01*
X107815227Y-66765500D01*
X108091607Y-66765500D01*
X108152029Y-66753481D01*
X108212452Y-66741463D01*
X108212455Y-66741461D01*
X108212458Y-66741461D01*
X108245787Y-66727654D01*
X108245786Y-66727654D01*
X108245792Y-66727652D01*
X108326286Y-66694312D01*
X108377509Y-66660084D01*
X108428733Y-66625858D01*
X108515858Y-66538733D01*
X108515858Y-66538731D01*
X108526066Y-66528524D01*
X108526068Y-66528521D01*
X112422383Y-62632205D01*
X112483704Y-62598722D01*
X112553396Y-62603706D01*
X112609329Y-62645578D01*
X112619408Y-62662750D01*
X112619572Y-62662656D01*
X112622820Y-62668282D01*
X112622821Y-62668284D01*
X112717467Y-62832216D01*
X112832358Y-62959815D01*
X112844129Y-62972888D01*
X112997265Y-63084148D01*
X112997270Y-63084151D01*
X113170192Y-63161142D01*
X113170197Y-63161144D01*
X113355354Y-63200500D01*
X113355355Y-63200500D01*
X113544644Y-63200500D01*
X113544646Y-63200500D01*
X113729803Y-63161144D01*
X113902730Y-63084151D01*
X114055871Y-62972888D01*
X114058788Y-62969647D01*
X114061600Y-62966526D01*
X114121087Y-62929879D01*
X114153748Y-62925500D01*
X114280323Y-62925500D01*
X114347362Y-62945185D01*
X114393117Y-62997989D01*
X114403061Y-63067147D01*
X114392705Y-63101904D01*
X114376571Y-63136502D01*
X114376566Y-63136516D01*
X114315432Y-63364673D01*
X114315430Y-63364684D01*
X114294843Y-63599998D01*
X114294843Y-63600001D01*
X114315430Y-63835315D01*
X114315432Y-63835326D01*
X114376566Y-64063483D01*
X114376570Y-64063492D01*
X114476400Y-64277579D01*
X114476402Y-64277583D01*
X114535072Y-64361373D01*
X114535073Y-64361373D01*
X115167037Y-63729409D01*
X115184075Y-63792993D01*
X115249901Y-63907007D01*
X115342993Y-64000099D01*
X115457007Y-64065925D01*
X115520588Y-64082961D01*
X114888625Y-64714925D01*
X114964594Y-64768119D01*
X115008219Y-64822696D01*
X115015413Y-64892194D01*
X114983890Y-64954549D01*
X114964595Y-64971269D01*
X114778594Y-65101508D01*
X114611505Y-65268597D01*
X114475965Y-65462169D01*
X114475964Y-65462171D01*
X114376098Y-65676335D01*
X114376094Y-65676344D01*
X114314938Y-65904586D01*
X114314936Y-65904596D01*
X114294341Y-66139999D01*
X114294341Y-66140000D01*
X114314936Y-66375403D01*
X114314938Y-66375413D01*
X114376094Y-66603655D01*
X114376096Y-66603659D01*
X114376097Y-66603663D01*
X114465323Y-66795008D01*
X114475965Y-66817830D01*
X114475967Y-66817834D01*
X114584281Y-66972521D01*
X114611505Y-67011401D01*
X114778599Y-67178495D01*
X114964158Y-67308425D01*
X114964594Y-67308730D01*
X115008218Y-67363307D01*
X115015411Y-67432806D01*
X114983889Y-67495160D01*
X114964593Y-67511880D01*
X114888626Y-67565072D01*
X114888625Y-67565072D01*
X115520590Y-68197037D01*
X115457007Y-68214075D01*
X115342993Y-68279901D01*
X115249901Y-68372993D01*
X115184075Y-68487007D01*
X115167037Y-68550589D01*
X114535073Y-67918625D01*
X114535072Y-67918625D01*
X114476401Y-68002419D01*
X114376570Y-68216507D01*
X114376566Y-68216516D01*
X114315432Y-68444673D01*
X114315430Y-68444684D01*
X114294843Y-68679998D01*
X114294843Y-68680001D01*
X114315430Y-68915315D01*
X114315432Y-68915326D01*
X114376566Y-69143483D01*
X114376570Y-69143492D01*
X114476400Y-69357579D01*
X114476402Y-69357583D01*
X114535072Y-69441373D01*
X114535073Y-69441373D01*
X115167037Y-68809409D01*
X115184075Y-68872993D01*
X115249901Y-68987007D01*
X115342993Y-69080099D01*
X115457007Y-69145925D01*
X115520590Y-69162962D01*
X114888625Y-69794925D01*
X114972421Y-69853599D01*
X115186507Y-69953429D01*
X115186516Y-69953433D01*
X115414673Y-70014567D01*
X115414684Y-70014569D01*
X115649998Y-70035157D01*
X115650002Y-70035157D01*
X115885315Y-70014569D01*
X115885326Y-70014567D01*
X116113483Y-69953433D01*
X116113492Y-69953429D01*
X116327578Y-69853600D01*
X116327582Y-69853598D01*
X116411373Y-69794926D01*
X116411373Y-69794925D01*
X115779409Y-69162962D01*
X115842993Y-69145925D01*
X115957007Y-69080099D01*
X116050099Y-68987007D01*
X116115925Y-68872993D01*
X116132962Y-68809410D01*
X116764925Y-69441373D01*
X116818119Y-69365405D01*
X116872696Y-69321781D01*
X116942195Y-69314588D01*
X117004549Y-69346110D01*
X117021269Y-69365405D01*
X117151505Y-69551401D01*
X117318599Y-69718495D01*
X117415384Y-69786265D01*
X117512165Y-69854032D01*
X117512167Y-69854033D01*
X117512170Y-69854035D01*
X117726337Y-69953903D01*
X117954592Y-70015063D01*
X118142918Y-70031539D01*
X118189999Y-70035659D01*
X118190000Y-70035659D01*
X118190001Y-70035659D01*
X118229234Y-70032226D01*
X118425408Y-70015063D01*
X118653663Y-69953903D01*
X118867830Y-69854035D01*
X119061401Y-69718495D01*
X119228495Y-69551401D01*
X119364035Y-69357830D01*
X119463903Y-69143663D01*
X119525063Y-68915408D01*
X119545659Y-68680000D01*
X119525063Y-68444592D01*
X119463903Y-68216337D01*
X119364035Y-68002171D01*
X119358731Y-67994595D01*
X119228494Y-67808597D01*
X119061402Y-67641506D01*
X119061396Y-67641501D01*
X118875842Y-67511575D01*
X118832217Y-67456998D01*
X118825023Y-67387500D01*
X118856546Y-67325145D01*
X118875842Y-67308425D01*
X118898026Y-67292891D01*
X119061401Y-67178495D01*
X119228495Y-67011401D01*
X119364035Y-66817830D01*
X119463903Y-66603663D01*
X119525063Y-66375408D01*
X119545659Y-66140000D01*
X119525063Y-65904592D01*
X119463903Y-65676337D01*
X119452509Y-65651904D01*
X119442018Y-65582827D01*
X119470538Y-65519043D01*
X119529014Y-65480804D01*
X119564892Y-65475500D01*
X125322048Y-65475500D01*
X125389087Y-65495185D01*
X125409729Y-65511819D01*
X125587262Y-65689352D01*
X125620747Y-65750675D01*
X125619356Y-65809126D01*
X125592438Y-65909586D01*
X125592436Y-65909596D01*
X125571841Y-66144999D01*
X125571841Y-66145000D01*
X125592436Y-66380403D01*
X125592438Y-66380413D01*
X125653594Y-66608655D01*
X125653596Y-66608659D01*
X125653597Y-66608663D01*
X125693536Y-66694312D01*
X125753465Y-66822830D01*
X125753467Y-66822834D01*
X125860170Y-66975220D01*
X125889005Y-67016401D01*
X126056099Y-67183495D01*
X126099175Y-67213657D01*
X126249665Y-67319032D01*
X126249667Y-67319033D01*
X126249670Y-67319035D01*
X126463837Y-67418903D01*
X126692092Y-67480063D01*
X126868534Y-67495500D01*
X126927499Y-67500659D01*
X126927500Y-67500659D01*
X126927501Y-67500659D01*
X126986466Y-67495500D01*
X127162908Y-67480063D01*
X127391163Y-67418903D01*
X127605330Y-67319035D01*
X127798901Y-67183495D01*
X127965995Y-67016401D01*
X127966004Y-67016388D01*
X127967136Y-67015040D01*
X127967793Y-67014602D01*
X127969823Y-67012573D01*
X127970230Y-67012980D01*
X128025305Y-66976334D01*
X128095166Y-66975220D01*
X128154538Y-67012053D01*
X128179835Y-67055733D01*
X128182686Y-67064334D01*
X128274788Y-67213656D01*
X128398844Y-67337712D01*
X128548166Y-67429814D01*
X128714703Y-67484999D01*
X128817491Y-67495500D01*
X130117508Y-67495499D01*
X130123813Y-67494855D01*
X130135395Y-67493671D01*
X130220297Y-67484999D01*
X130386834Y-67429814D01*
X130536156Y-67337712D01*
X130660212Y-67213656D01*
X130752314Y-67064334D01*
X130807499Y-66897797D01*
X130818000Y-66795009D01*
X130817999Y-65494992D01*
X130807499Y-65392203D01*
X130752314Y-65225666D01*
X130660212Y-65076344D01*
X130536156Y-64952288D01*
X130438728Y-64892194D01*
X130386836Y-64860187D01*
X130386831Y-64860185D01*
X130386715Y-64860146D01*
X130378233Y-64857336D01*
X130320790Y-64817564D01*
X130293967Y-64753048D01*
X130306282Y-64684272D01*
X130335267Y-64647517D01*
X130335073Y-64647323D01*
X130336719Y-64645676D01*
X130337540Y-64644636D01*
X130338888Y-64643504D01*
X130338901Y-64643495D01*
X130505995Y-64476401D01*
X130641535Y-64282830D01*
X130741403Y-64068663D01*
X130802563Y-63840408D01*
X130823159Y-63605000D01*
X130822721Y-63599999D01*
X130815016Y-63511931D01*
X130802563Y-63369592D01*
X130741403Y-63141337D01*
X130641535Y-62927171D01*
X130638211Y-62922423D01*
X130505994Y-62733597D01*
X130338902Y-62566506D01*
X130338901Y-62566505D01*
X130152905Y-62436269D01*
X130109281Y-62381692D01*
X130102088Y-62312193D01*
X130133610Y-62249839D01*
X130152905Y-62233119D01*
X130228873Y-62179925D01*
X129596909Y-61547962D01*
X129660493Y-61530925D01*
X129774507Y-61465099D01*
X129867599Y-61372007D01*
X129933425Y-61257993D01*
X129950462Y-61194410D01*
X130582425Y-61826373D01*
X130582426Y-61826373D01*
X130641098Y-61742582D01*
X130641100Y-61742578D01*
X130740929Y-61528492D01*
X130740933Y-61528483D01*
X130802067Y-61300326D01*
X130802069Y-61300315D01*
X130822657Y-61065001D01*
X130822657Y-61064998D01*
X130802069Y-60829684D01*
X130802067Y-60829673D01*
X130740933Y-60601516D01*
X130740929Y-60601507D01*
X130641100Y-60387423D01*
X130641099Y-60387421D01*
X130582425Y-60303626D01*
X130582425Y-60303625D01*
X129950462Y-60935589D01*
X129933425Y-60872007D01*
X129867599Y-60757993D01*
X129774507Y-60664901D01*
X129660493Y-60599075D01*
X129596910Y-60582037D01*
X130228873Y-59950073D01*
X130228873Y-59950072D01*
X130145083Y-59891402D01*
X130145079Y-59891400D01*
X129930992Y-59791570D01*
X129930983Y-59791566D01*
X129702826Y-59730432D01*
X129702815Y-59730430D01*
X129467502Y-59709843D01*
X129467498Y-59709843D01*
X129232184Y-59730430D01*
X129232173Y-59730432D01*
X129004016Y-59791566D01*
X129004007Y-59791570D01*
X128789919Y-59891401D01*
X128706125Y-59950072D01*
X129338090Y-60582037D01*
X129274507Y-60599075D01*
X129160493Y-60664901D01*
X129067401Y-60757993D01*
X129001575Y-60872007D01*
X128984537Y-60935589D01*
X128352573Y-60303626D01*
X128299381Y-60379594D01*
X128244804Y-60423219D01*
X128175306Y-60430413D01*
X128112951Y-60398891D01*
X128096230Y-60379594D01*
X127965994Y-60193597D01*
X127798902Y-60026506D01*
X127798895Y-60026501D01*
X127791761Y-60021506D01*
X127733519Y-59980724D01*
X127605334Y-59890967D01*
X127605330Y-59890965D01*
X127561443Y-59870500D01*
X127391163Y-59791097D01*
X127391159Y-59791096D01*
X127391155Y-59791094D01*
X127162913Y-59729938D01*
X127162903Y-59729936D01*
X126927501Y-59709341D01*
X126927499Y-59709341D01*
X126692096Y-59729936D01*
X126692086Y-59729938D01*
X126463844Y-59791094D01*
X126463835Y-59791098D01*
X126249671Y-59890964D01*
X126249669Y-59890965D01*
X126056097Y-60026505D01*
X125889005Y-60193597D01*
X125753465Y-60387169D01*
X125753464Y-60387171D01*
X125672873Y-60560000D01*
X125655930Y-60596335D01*
X125653598Y-60601335D01*
X125653594Y-60601344D01*
X125592438Y-60829586D01*
X125592436Y-60829596D01*
X125585182Y-60912510D01*
X125559729Y-60977579D01*
X125503138Y-61018557D01*
X125433376Y-61022435D01*
X125373973Y-60989383D01*
X121335198Y-56950608D01*
X121335178Y-56950586D01*
X121243733Y-56859141D01*
X121192509Y-56824915D01*
X121141287Y-56790689D01*
X121141286Y-56790688D01*
X121141283Y-56790686D01*
X121141280Y-56790685D01*
X121060792Y-56757347D01*
X121027453Y-56743537D01*
X121017427Y-56741543D01*
X120967029Y-56731518D01*
X120906610Y-56719500D01*
X120906607Y-56719500D01*
X120906606Y-56719500D01*
X116886607Y-56719500D01*
X116763393Y-56719500D01*
X116763389Y-56719500D01*
X116702971Y-56731518D01*
X116642548Y-56743537D01*
X116642543Y-56743538D01*
X116609207Y-56757347D01*
X116595397Y-56763067D01*
X116573169Y-56772274D01*
X116528713Y-56790688D01*
X116518557Y-56797475D01*
X116518449Y-56797547D01*
X116426268Y-56859140D01*
X116382705Y-56902703D01*
X116339142Y-56946267D01*
X116339139Y-56946270D01*
X116152227Y-57133181D01*
X116090904Y-57166666D01*
X116064546Y-57169500D01*
X114999998Y-57169500D01*
X114999981Y-57169501D01*
X114897203Y-57180000D01*
X114897200Y-57180001D01*
X114730668Y-57235185D01*
X114730663Y-57235187D01*
X114581342Y-57327289D01*
X114457289Y-57451342D01*
X114365187Y-57600663D01*
X114365185Y-57600668D01*
X114348701Y-57650414D01*
X114310001Y-57767203D01*
X114310001Y-57767204D01*
X114310000Y-57767204D01*
X114299500Y-57869983D01*
X114299500Y-58934546D01*
X114279815Y-59001585D01*
X114263181Y-59022227D01*
X107863503Y-65421906D01*
X107802180Y-65455391D01*
X107732488Y-65450407D01*
X107676555Y-65408535D01*
X107674247Y-65405348D01*
X107578494Y-65268597D01*
X107411402Y-65101506D01*
X107411401Y-65101505D01*
X107225405Y-64971269D01*
X107181781Y-64916692D01*
X107174588Y-64847193D01*
X107206110Y-64784839D01*
X107225405Y-64768119D01*
X107301373Y-64714925D01*
X106669409Y-64082962D01*
X106732993Y-64065925D01*
X106847007Y-64000099D01*
X106940099Y-63907007D01*
X107005925Y-63792993D01*
X107022962Y-63729410D01*
X107654925Y-64361373D01*
X107654926Y-64361373D01*
X107713598Y-64277582D01*
X107713600Y-64277578D01*
X107813429Y-64063492D01*
X107813433Y-64063483D01*
X107874567Y-63835326D01*
X107874569Y-63835315D01*
X107895157Y-63600001D01*
X107895157Y-63599998D01*
X107874569Y-63364684D01*
X107874567Y-63364673D01*
X107813433Y-63136516D01*
X107813429Y-63136507D01*
X107713600Y-62922423D01*
X107713599Y-62922421D01*
X107654925Y-62838626D01*
X107654925Y-62838625D01*
X107022962Y-63470589D01*
X107005925Y-63407007D01*
X106940099Y-63292993D01*
X106847007Y-63199901D01*
X106732993Y-63134075D01*
X106669410Y-63117037D01*
X107301373Y-62485073D01*
X107301373Y-62485072D01*
X107225405Y-62431880D01*
X107181780Y-62377304D01*
X107174586Y-62307805D01*
X107206108Y-62245451D01*
X107225399Y-62228734D01*
X107411401Y-62098495D01*
X107578495Y-61931401D01*
X107714035Y-61737830D01*
X107813903Y-61523663D01*
X107875063Y-61295408D01*
X107895659Y-61060000D01*
X107875063Y-60824592D01*
X107813903Y-60596337D01*
X107714035Y-60382171D01*
X107708425Y-60374158D01*
X107578494Y-60188597D01*
X107411402Y-60021506D01*
X107411396Y-60021501D01*
X107225842Y-59891575D01*
X107182217Y-59836998D01*
X107175023Y-59767500D01*
X107206546Y-59705145D01*
X107225842Y-59688425D01*
X107368325Y-59588657D01*
X107411401Y-59558495D01*
X107578495Y-59391401D01*
X107714035Y-59197830D01*
X107813903Y-58983663D01*
X107875063Y-58755408D01*
X107895659Y-58520000D01*
X107875063Y-58284592D01*
X107813903Y-58056337D01*
X107714035Y-57842171D01*
X107581527Y-57652928D01*
X107578494Y-57648597D01*
X107411402Y-57481506D01*
X107411395Y-57481501D01*
X107217834Y-57345967D01*
X107217830Y-57345965D01*
X107177777Y-57327288D01*
X107003663Y-57246097D01*
X107003659Y-57246096D01*
X107003655Y-57246094D01*
X106775413Y-57184938D01*
X106775403Y-57184936D01*
X106540001Y-57164341D01*
X106539999Y-57164341D01*
X106304596Y-57184936D01*
X106304586Y-57184938D01*
X106076344Y-57246094D01*
X106076335Y-57246098D01*
X105862171Y-57345964D01*
X105862169Y-57345965D01*
X105668597Y-57481505D01*
X105501503Y-57648599D01*
X105500349Y-57649975D01*
X105499688Y-57650414D01*
X105497676Y-57652427D01*
X105497271Y-57652022D01*
X105442173Y-57688671D01*
X105372312Y-57689772D01*
X105312946Y-57652928D01*
X105287663Y-57609265D01*
X105284814Y-57600666D01*
X105192712Y-57451344D01*
X105068656Y-57327288D01*
X104975888Y-57270069D01*
X104919336Y-57235187D01*
X104919331Y-57235185D01*
X104917862Y-57234698D01*
X104752797Y-57180001D01*
X104752795Y-57180000D01*
X104650010Y-57169500D01*
X103349998Y-57169500D01*
X103349981Y-57169501D01*
X103247203Y-57180000D01*
X103247200Y-57180001D01*
X103080668Y-57235185D01*
X103080663Y-57235187D01*
X102931342Y-57327289D01*
X102807289Y-57451342D01*
X102715187Y-57600663D01*
X102715185Y-57600668D01*
X102698701Y-57650414D01*
X102660001Y-57767203D01*
X102660001Y-57767204D01*
X102660000Y-57767204D01*
X102649500Y-57869983D01*
X102649500Y-59170001D01*
X102649501Y-59170018D01*
X102660000Y-59272796D01*
X102660001Y-59272799D01*
X102699303Y-59391402D01*
X102715186Y-59439334D01*
X102807288Y-59588656D01*
X102931344Y-59712712D01*
X103080666Y-59804814D01*
X103089264Y-59807663D01*
X103146707Y-59847433D01*
X103173531Y-59911948D01*
X103161217Y-59980724D01*
X103132234Y-60017483D01*
X103132427Y-60017676D01*
X103130798Y-60019304D01*
X103129975Y-60020349D01*
X103128599Y-60021503D01*
X102961505Y-60188597D01*
X102825965Y-60382169D01*
X102825964Y-60382171D01*
X102726098Y-60596335D01*
X102726094Y-60596344D01*
X102664938Y-60824586D01*
X102664936Y-60824596D01*
X102644341Y-61059999D01*
X102644341Y-61060000D01*
X102664936Y-61295403D01*
X102664938Y-61295413D01*
X102726094Y-61523655D01*
X102726096Y-61523659D01*
X102726097Y-61523663D01*
X102809358Y-61702217D01*
X102825965Y-61737830D01*
X102825967Y-61737834D01*
X102923861Y-61877640D01*
X102961505Y-61931401D01*
X103128599Y-62098495D01*
X103314594Y-62228730D01*
X103358218Y-62283307D01*
X103365411Y-62352806D01*
X103333889Y-62415160D01*
X103314593Y-62431880D01*
X103238626Y-62485072D01*
X103238625Y-62485072D01*
X103870590Y-63117037D01*
X103807007Y-63134075D01*
X103692993Y-63199901D01*
X103599901Y-63292993D01*
X103534075Y-63407007D01*
X103517037Y-63470589D01*
X102885073Y-62838625D01*
X102885072Y-62838625D01*
X102826401Y-62922419D01*
X102726570Y-63136507D01*
X102726566Y-63136516D01*
X102665432Y-63364673D01*
X102665430Y-63364684D01*
X102644843Y-63599998D01*
X102644843Y-63600001D01*
X102665430Y-63835315D01*
X102665432Y-63835326D01*
X102726566Y-64063483D01*
X102726570Y-64063492D01*
X102826400Y-64277579D01*
X102826402Y-64277583D01*
X102885072Y-64361373D01*
X102885073Y-64361373D01*
X103517037Y-63729409D01*
X103534075Y-63792993D01*
X103599901Y-63907007D01*
X103692993Y-64000099D01*
X103807007Y-64065925D01*
X103870590Y-64082962D01*
X103238625Y-64714925D01*
X103314594Y-64768119D01*
X103358219Y-64822696D01*
X103365413Y-64892194D01*
X103333890Y-64954549D01*
X103314595Y-64971269D01*
X103128594Y-65101508D01*
X102961505Y-65268597D01*
X102825965Y-65462169D01*
X102825964Y-65462171D01*
X102726098Y-65676335D01*
X102726094Y-65676344D01*
X102664938Y-65904586D01*
X102664936Y-65904596D01*
X102644341Y-66139999D01*
X102644341Y-66140000D01*
X102664936Y-66375403D01*
X102664938Y-66375413D01*
X102726094Y-66603655D01*
X102726096Y-66603659D01*
X102726097Y-66603663D01*
X102815323Y-66795008D01*
X102825965Y-66817830D01*
X102825967Y-66817834D01*
X102934281Y-66972521D01*
X102961501Y-67011396D01*
X102961506Y-67011402D01*
X103128597Y-67178493D01*
X103128603Y-67178498D01*
X103314158Y-67308425D01*
X103357783Y-67363002D01*
X103364977Y-67432500D01*
X103333454Y-67494855D01*
X103314158Y-67511575D01*
X103128597Y-67641505D01*
X102961505Y-67808597D01*
X102825965Y-68002169D01*
X102825964Y-68002171D01*
X102726098Y-68216335D01*
X102726094Y-68216344D01*
X102664938Y-68444586D01*
X102664936Y-68444596D01*
X102644341Y-68679999D01*
X102644341Y-68680000D01*
X98592565Y-68680000D01*
X98592565Y-53200389D01*
X98592574Y-53198856D01*
X98595018Y-53001150D01*
X98595606Y-52990529D01*
X98634432Y-52596333D01*
X98636214Y-52584320D01*
X98713342Y-52196577D01*
X98716288Y-52184810D01*
X98831064Y-51806451D01*
X98835145Y-51795045D01*
X98986442Y-51429784D01*
X98991638Y-51418800D01*
X99177997Y-51070145D01*
X99184242Y-51059725D01*
X99403882Y-50731010D01*
X99411128Y-50721241D01*
X99661924Y-50415645D01*
X99670075Y-50406651D01*
X99949636Y-50127088D01*
X99958631Y-50118935D01*
X100264244Y-49868124D01*
X100273983Y-49860902D01*
X100602707Y-49641253D01*
X100613124Y-49635009D01*
X100961786Y-49448643D01*
X100972774Y-49443446D01*
X101338022Y-49292154D01*
X101349460Y-49288062D01*
X101727784Y-49173296D01*
X101739546Y-49170350D01*
X102127297Y-49093219D01*
X102139322Y-49091434D01*
X102533521Y-49052606D01*
X102544125Y-49052019D01*
X102740975Y-49049603D01*
X102741833Y-49049593D01*
X102743355Y-49049584D01*
X131599131Y-49049584D01*
X131600860Y-49049596D01*
G37*
%TD.AperFunction*%
%TD*%
M02*
